<?xml version="1.0" encoding="UTF-8"?>
<svg id="Layer_1" xmlns="http://www.w3.org/2000/svg" viewBox="0 0 1920 351.44">
  <defs>
    <style>
      .cls-1 {
        fill: #083050;
      }

      .cls-2 {
        fill: #37b34a;
      }
    </style>
  </defs>
  <path class="cls-1" d="M531.38,138.12c1.34-4.75,3.67-9.22,7.02-13.44,3.35-4.2,7.36-7.82,12.04-10.89,4.69-3.05,9.89-5.5,15.63-7.34,5.73-1.82,11.56-2.75,17.49-2.75h125.77c5.93,0,11.28.93,16.07,2.75,4.77,1.84,8.69,4.29,11.75,7.34,3.06,3.07,5.17,6.69,6.31,10.89,1.15,4.22,1.05,8.69-.29,13.44l-24.38,91.76h-71.69l21.23-80.3c.95-3.2.33-5.93-1.87-8.14-2.2-2.22-5.3-3.32-9.32-3.32h-39.74c-4.02,0-7.7,1.1-11.04,3.32-3.35,2.21-5.5,4.93-6.45,8.14l-21.23,80.3h-71.69l24.38-91.76Z"/>
  <path class="cls-1" d="M738.85,195.47c-1.34,4.75-1.43,9.21-.28,13.43,1.15,4.21,3.26,7.83,6.31,10.9,3.07,3.06,6.98,5.5,11.76,7.33,4.78,1.84,10.13,2.76,16.06,2.76h125.78c5.92,0,11.75-.92,17.49-2.76,5.74-1.83,10.94-4.27,15.63-7.33,4.68-3.07,8.69-6.69,12.04-10.9,3.34-4.22,5.69-8.69,7.03-13.43l36.42-137.65h-71.69l-12.1,45.89h-97.05c-5.93,0-11.75.92-17.49,2.75-5.74,1.84-10.95,4.29-15.63,7.34-4.68,3.07-8.69,6.69-12.04,10.9-3.34,4.21-5.69,8.69-7.02,13.43l-15.2,57.35M875.67,192.14c-3.35,2.23-7.03,3.32-11.04,3.32h-39.74c-4.02,0-7.13-1.1-9.33-3.32-2.19-2.22-2.82-4.93-1.86-8.15l8.89-34.41c.96-3.21,3.1-5.93,6.45-8.15,3.35-2.22,7.03-3.32,11.04-3.32h54.13l-12.1,45.88c-.96,3.21-3.11,5.93-6.45,8.15Z"/>
  <path class="cls-1" d="M1190.28,138.12h-68.41l-12.04,45.88c-.96,3.21-.34,5.93,1.86,8.15,2.2,2.23,5.3,3.32,9.32,3.32h54.08l-9.17,34.42h-97.1c-5.93,0-11.26-.92-16.05-2.76-4.78-1.83-8.7-4.27-11.75-7.33-3.07-3.07-5.17-6.69-6.32-10.9-1.15-4.22-1.05-8.69.29-13.43l36.43-137.65h71.69l-12.04,45.89h68.41l-9.18,34.42Z"/>
  <path class="cls-1" d="M1483.62,192.14c2.21,2.23,5.32,3.32,9.33,3.32h108.33l-9.17,34.42h-151.35c-5.93,0-11.28-.92-16.06-2.75-4.79-1.84-8.7-4.27-11.77-7.34-3.04-3.07-5.16-6.69-6.3-10.9-1.16-4.22-1.06-8.69.28-13.43l15.2-57.35c1.34-4.75,3.67-9.22,7.02-13.43,3.33-4.21,7.36-7.83,12.03-10.9,4.69-3.05,9.9-5.5,15.63-7.33,5.74-1.83,11.56-2.76,17.49-2.76h151.36l-9.17,34.42h-108.34c-4.03,0-7.71,1.1-11.05,3.32-3.34,2.22-5.5,4.94-6.45,8.15l-8.89,34.41c-.95,3.21-.33,5.94,1.86,8.15"/>
  <path class="cls-1" d="M1653.64,57.82h71.7l-12.04,45.89h97.08c5.93,0,11.27.93,16.06,2.75,4.77,1.84,8.69,4.29,11.77,7.34,3.05,3.07,5.15,6.69,6.3,10.9,1.14,4.21,1.04,8.69-.29,13.43l-24.38,91.76h-71.69l21.22-80.29c.95-3.21.34-5.93-1.85-8.15-2.22-2.22-5.31-3.32-9.32-3.32h-54.09l-24.38,91.76h-71.69l45.6-172.07Z"/>
  <polygon class="cls-2" points="986.72 103.75 977.6 138.17 1037.53 138.17 1046.71 103.75 986.72 103.75"/>
  <path class="cls-1" d="M381.97,149.59c.96-3.2,3.11-5.93,6.45-8.14,3.35-2.23,7.03-3.32,11.04-3.32h46.61c4.02,0,7.12,1.1,9.33,3.32,2.19,2.21,2.81,4.93,1.86,8.14l-.96,3.72c-.81,2.91-.96,3.28-1.23,3.62-.61.75-1.33,1.4-2.17,1.95-.84.55-1.77.99-2.8,1.31-1.03.33-2.07.5-3.14.5h-67.86l2.87-11.1ZM514.95,124.69c-1.15-4.2-3.26-7.82-6.3-10.9-3.07-3.05-6.99-5.5-11.76-7.33-4.79-1.83-10.14-2.76-16.06-2.76h-115.2c-5.93,0-11.76.93-17.5,2.76-5.73,1.83-10.95,4.28-15.63,7.33-4.68,3.08-8.69,6.7-12.04,10.9-3.34,4.22-5.69,8.69-7.02,13.44l-15.2,57.35c-1.34,4.75-1.44,9.21-.29,13.42,1.15,4.21,3.26,7.84,6.31,10.9,3.06,3.06,6.97,5.49,11.75,7.33,4.78,1.83,10.13,2.76,16.06,2.76h158.23l9.17-34.42h-115.2c-4.02,0-7.13-1.1-9.32-3.33-2.2-2.21-2.83-4.93-1.87-8.14h102.21c3.76,0,7.46-.59,11.11-1.76,3.67-1.17,6.98-2.72,9.96-4.67,2.98-1.95,5.55-4.26,7.7-6.94,1.92-2.39,3.25-4.91,4.05-7.55l6.55-24.96c1.34-4.75,1.43-9.22.28-13.44"/>
  <path class="cls-1" d="M1273.59,149.59c.96-3.2,3.11-5.93,6.45-8.14,3.35-2.23,7.03-3.32,11.04-3.32h46.61c4.02,0,7.12,1.1,9.32,3.32,2.2,2.21,2.82,4.93,1.87,8.14l-.96,3.72c-.81,2.91-.96,3.28-1.23,3.62-.61.75-1.33,1.4-2.17,1.95-.84.55-1.77.99-2.8,1.31-1.03.33-2.07.5-3.14.5h-67.86l2.87-11.1ZM1406.57,124.69c-1.15-4.2-3.26-7.82-6.3-10.9-3.07-3.05-6.99-5.5-11.76-7.33-4.79-1.83-10.14-2.76-16.06-2.76h-115.2c-5.93,0-11.76.93-17.5,2.76-5.73,1.83-10.95,4.28-15.63,7.33-4.68,3.08-8.69,6.7-12.04,10.9-3.34,4.22-5.69,8.69-7.02,13.44l-15.2,57.35c-1.34,4.75-1.44,9.21-.29,13.42,1.15,4.21,3.26,7.84,6.31,10.9,3.06,3.06,6.97,5.49,11.75,7.33,4.78,1.83,10.13,2.76,16.06,2.76h158.23l9.17-34.42h-115.2c-4.02,0-7.13-1.1-9.32-3.33-2.2-2.21-2.83-4.93-1.87-8.14h102.21c3.76,0,7.46-.59,11.11-1.76,3.67-1.17,6.98-2.72,9.96-4.67,2.98-1.95,5.55-4.26,7.7-6.94,1.92-2.39,3.25-4.91,4.05-7.55l6.55-24.96c1.34-4.75,1.43-9.22.28-13.44"/>
  <polygon class="cls-2" points="1840.39 195.77 1831.34 229.88 1873.48 229.88 1878.69 210.32 1882.57 195.77 1840.39 195.77"/>
  <g>
    <path class="cls-1" d="M311.78,78.82c-1.15-4.21-3.26-7.85-6.3-10.9-3.07-3.06-6.99-5.52-11.76-7.35-4.78-1.83-10.14-2.74-16.06-2.74H108.86l-14.85,56.29h71.85s5.82-21.88,5.82-21.88h54.08c4.01,0,7.12,1.11,9.32,3.32,2.2,2.23,2.82,4.93,1.87,8.15l-3.16,11.47c-.95,3.22-3.06,5.93-6.3,8.15-3.26,2.23-6.89,3.33-10.9,3.33h-40.42s-3.42,12.83-3.42,12.83l-5.75,21.57h40.4c4.02,0,7.13,1.12,9.32,3.33,2.2,2.23,2.83,4.93,1.87,8.15l-2.87,11.47c-.96,3.22-3.11,5.94-6.45,8.15-3.35,2.21-10.55,3.32-14.57,3.32h-50.44s5.81-21.87,5.81-21.87h-71.87l-14.92,56.29h168.8c5.92,0,11.75-.92,17.49-2.76,5.74-1.83,10.94-4.27,15.63-7.34,4.68-3.05,8.69-6.68,12.04-10.9,3.34-4.19,5.68-8.67,7.02-13.41l6.88-25.92c1.34-5.22,1.29-10.03-.14-14.46-1.44-4.44-3.97-8.17-7.61-11.25,5.35-3.21,9.89-7.02,13.63-11.46,3.73-4.45,6.35-9.25,7.88-14.46l6.89-25.7c1.15-4.74,1.15-9.22,0-13.41"/>
    <polygon class="cls-2" points="90.9 126.65 81.79 161.06 153.35 161.06 158.61 141.32 162.52 126.65 90.9 126.65"/>
    <polygon class="cls-2" points="63.46 126.65 54.35 161.06 75.73 161.06 80.98 141.32 84.9 126.65 63.46 126.65"/>
    <polygon class="cls-2" points="46.54 126.65 37.43 161.06 48.28 161.06 53.54 141.32 57.45 126.65 46.54 126.65"/>
  </g>
  <g>
    <path class="cls-2" d="M1044.23,270.18l-.34.78c2.43,1.31,5.05,3.11,5.05,8.06,0,9.51-9.27,13.25-21.35,13.25h-24.46l13.15-40.76h23.2c9.9,0,12.96,3.74,12.96,8.54,0,4.08-2.48,8.2-8.2,10.14ZM1036.13,277.9c0-1.02-.53-2.67-3.59-2.67h-10.43l-2.18,6.69h10.67c3.15,0,5.53-1.5,5.53-4.02ZM1039.18,264.27c0-1.12-.63-2.43-3.45-2.43h-9.27l-1.99,6.07h9.41c3.4,0,5.29-1.8,5.29-3.64Z"/>
    <path class="cls-2" d="M1062.33,251.5h13.44l-13.15,40.76h-13.44l13.15-40.76Z"/>
    <path class="cls-2" d="M1086.34,274.74c0,4.85,3.49,7.28,7.91,7.28,2.23,0,7.66-.48,10.29-5.53h-9.8l2.23-6.79h23l-7.28,22.56h-6.89l1.36-4.95c-3.49,3.78-9.12,6.31-15.92,6.31-11.45,0-18.29-6.01-18.29-16.69,0-14.22,12.18-26.78,29.26-26.78,11.74,0,19.21,7.18,18.19,15.82h-13.49c-1.02-2.57-3.74-4.22-7.28-4.22-7.96,0-13.3,6.55-13.3,13Z"/>
    <path class="cls-2" d="M1136.12,274.74c0,4.85,3.49,7.28,7.91,7.28,2.23,0,7.66-.48,10.29-5.53h-9.8l2.23-6.79h23l-7.28,22.56h-6.89l1.36-4.95c-3.49,3.78-9.12,6.31-15.92,6.31-11.45,0-18.29-6.01-18.29-16.69,0-14.22,12.18-26.78,29.26-26.78,11.74,0,19.21,7.18,18.19,15.82h-13.49c-1.02-2.57-3.74-4.22-7.28-4.22-7.96,0-13.3,6.55-13.3,13Z"/>
    <path class="cls-2" d="M1190.13,262.23l-1.7,5.24h23.29l-2.82,8.59h-23.24l-1.79,5.49h23.39l-3.49,10.72h-36.78l13.15-40.76h36.93l-3.49,10.73h-23.44Z"/>
    <path class="cls-2" d="M1248.42,279.16l3.01,13.1h-12.91l-2.28-10.48h-10.77l-3.35,10.48h-13.44l13.1-40.76h21.25c10.34,0,15.33,3.93,15.33,11.89,0,7.33-4.32,12.76-9.95,15.77ZM1228.67,271.93l9.32-.05c2.91,0,6.7-1.89,6.7-5.63,0-2.72-1.55-3.59-4.71-3.59h-8.34l-2.96,9.26Z"/>
    <path class="cls-2" d="M1318.96,262.71h-14.36l-9.66,29.55h-13.44l9.66-29.55h-14.7l3.59-11.21h42.55l-3.64,11.21Z"/>
    <path class="cls-2" d="M1369.67,251.5l-13.1,40.76h-13.44l4.61-14.27h-15.63l-4.61,14.27h-13.44l13.1-40.76h13.44l-4.95,15.34h15.62l4.95-15.34h13.44Z"/>
    <path class="cls-2" d="M1394.95,286.87h-17.18l-3.54,5.39h-14.31l27.71-40.76h18.93l1.84,40.76h-13.35l-.1-5.39ZM1394.86,276.92l-.19-12.8h-1.94l-8.4,12.8h10.53Z"/>
    <path class="cls-2" d="M1424.31,251.5h14.9l6.65,22.42h1.41l7.38-22.42h13.1l-13.25,40.76h-14.55l-7.08-22.13h-1.41l-7.33,22.13h-13.1l13.3-40.76Z"/>
    <path class="cls-2" d="M1514.51,270.18l-.34.78c2.43,1.31,5.05,3.11,5.05,8.06,0,9.51-9.27,13.25-21.35,13.25h-24.46l13.15-40.76h23.2c9.9,0,12.96,3.74,12.96,8.54,0,4.08-2.48,8.2-8.2,10.14ZM1506.4,277.9c0-1.02-.53-2.67-3.59-2.67h-10.43l-2.18,6.69h10.67c3.15,0,5.53-1.5,5.53-4.02ZM1509.46,264.27c0-1.12-.63-2.43-3.45-2.43h-9.27l-1.99,6.07h9.41c3.4,0,5.29-1.8,5.29-3.64Z"/>
    <path class="cls-2" d="M1525.38,273.92l7.37-22.42h13.64l-7.76,23.44c-1.6,4.65,0,7.52,5.34,7.52s8.44-2.81,10.43-8.87l7.18-22.08h13.64l-7.71,23.68c-4.41,13.48-11.89,18.44-25.43,18.44-14.94,0-20.91-6.84-16.69-19.7Z"/>
    <path class="cls-2" d="M1570.7,278.77h11.4c-.68,3.25,2.82,4.56,7.33,4.56s8.98-1.11,8.98-3.93c0-1.27-.68-2.57-4.7-3.16l-3.25-.53c-4.12-.58-14.41-1.89-14.41-10.38,0-9.71,9.22-15.19,22.27-15.19s20.33,5.29,16.01,14.75h-11.01c.39-2.08-1.31-4.46-6.89-4.46-4.61,0-7.57,1.56-7.57,3.93,0,1.17.73,2.33,3.88,2.87l2.38.44c5.92,1.16,16.45,1.79,16.45,10.53,0,11.6-11.26,15.43-24.02,15.43s-20.72-3.78-16.84-14.85Z"/>
    <path class="cls-2" d="M1624.76,251.5h13.44l-13.15,40.76h-13.44l13.15-40.76Z"/>
    <path class="cls-2" d="M1643.14,251.5h14.9l6.65,22.42h1.41l7.38-22.42h13.1l-13.25,40.76h-14.55l-7.08-22.13h-1.41l-7.33,22.13h-13.1l13.3-40.76Z"/>
    <path class="cls-2" d="M1701.32,262.23l-1.7,5.24h23.29l-2.82,8.59h-23.24l-1.79,5.49h23.39l-3.49,10.72h-36.78l13.15-40.76h36.93l-3.49,10.73h-23.44Z"/>
    <path class="cls-2" d="M1723.65,278.77h11.4c-.68,3.25,2.82,4.56,7.33,4.56s8.98-1.11,8.98-3.93c0-1.27-.68-2.57-4.7-3.16l-3.25-.53c-4.12-.58-14.41-1.89-14.41-10.38,0-9.71,9.22-15.19,22.27-15.19s20.33,5.29,16.01,14.75h-11.01c.39-2.08-1.31-4.46-6.89-4.46-4.61,0-7.57,1.56-7.57,3.93,0,1.17.73,2.33,3.88,2.87l2.38.44c5.92,1.16,16.45,1.79,16.45,10.53,0,11.6-11.26,15.43-24.02,15.43s-20.72-3.78-16.84-14.85Z"/>
    <path class="cls-2" d="M1768.93,278.77h11.4c-.68,3.25,2.82,4.56,7.33,4.56s8.98-1.11,8.98-3.93c0-1.27-.68-2.57-4.7-3.16l-3.25-.53c-4.12-.58-14.41-1.89-14.41-10.38,0-9.71,9.22-15.19,22.27-15.19s20.33,5.29,16.01,14.75h-11.01c.39-2.08-1.31-4.46-6.89-4.46-4.61,0-7.57,1.56-7.57,3.93,0,1.17.73,2.33,3.88,2.87l2.38.44c5.92,1.16,16.45,1.79,16.45,10.53,0,11.6-11.26,15.43-24.02,15.43s-20.72-3.78-16.84-14.85Z"/>
  </g>
</svg>